- 
http://www.Speed.Cd 
       
http://www.Speed.Cd       the fast  and The Hottest Private Tracker on the net

(((--Registration will be open on june every weekend--)))

Please Seed back to make the speed Faster!!!

and don't forget to visit      ...... http://www.Speed.Cd..........
-[img]http://img710.imageshack.us/img710/3056/theward.jpg[/img]

[color=blue][size=5][b]The.Ward.2011.DVDScr.XVID.AC3.HQ.Hive-CM8[/b][/size][/color]


[b]Thx Hive


CM8 Doing It Right The First Time :D


!!Cinemadate July 2011!!

Source: DVD-Screener

Video: 720x304 @bitrate 1600 2pass
Audio: English AC3 2.0 Stereo
Sample: yes included

Encode: 

enjoy the upcoming cinemamovie from july already now. Video was a bit dark and colourless. 
fixed that as good as possible.[/b]


[url]http://www.imdb.com/title/tt1369706/[/url]


General
Complete name                    : The.Ward.2011.DVDScr.XVID.AC3.HQ.Hive-CM8.avi
Format                           : AVI
Format/Info                      : Audio Video Interleave
File size                        : 1.20 GiB
Duration                         : 1h 32mn
Overall bit rate                 : 1 866 Kbps
Writing application              : Nandub v1.0rc2
Writing library                  : Nandub build 1853/release

Video
ID                               : 0
Format                           : MPEG-4 Visual
Format profile                   : Advanced Simple@L5
Format settings, BVOP            : 2
Format settings, QPel            : Yes
Format settings, GMC             : No warppoints
Format settings, Matrix          : Default (H.263)
Muxing mode                      : Packed bitstream
Codec ID                         : XVID
Codec ID/Hint                    : XviD
Duration                         : 1h 32mn
Bit rate                         : 1 601 Kbps
Width                            : 720 pixels
Height                           : 304 pixels
Display aspect ratio             : 2.35:1
Frame rate                       : 23.976 fps
Color space                      : YUV
Chroma subsampling               : 4:2:0
Bit depth                        : 8 bits
Scan type                        : Progressive
Compression mode                 : Lossy
Bits/(Pixel*Frame)               : 0.305
Stream size                      : 1.03 GiB (86%)
Writing library                  : XviD 1.2.1 (UTC 2008-12-04)

Audio
ID                               : 1
Format                           : AC-3
Format/Info                      : Audio Coding 3
Mode extension                   : CM (complete main)
Codec ID                         : 2000
Duration                         : 1h 32mn
Bit rate mode                    : Constant
Bit rate                         : 256 Kbps
Channel(s)                       : 2 channels
Channel positions                : Front: L R
Sampling rate                    : 48.0 KHz
Bit depth                        : 16 bits
Compression mode                 : Lossy
Stream size                      : 169 MiB (14%)
Alignment                        : Split accross interleaves
Interleave, duration             : 42 ms (1.00 video frame)
Interleave, preload duration     : 500 ms



Amber Heard ... Kristen
Lyndsy Fonseca ... Iris
Danielle Panabaker ... Sarah
Jared Harris ... Dr. Stringer
Mamie Gummer ... Emily


A thriller centered on an institutionalized young woman who becomes terrorized by a ghost.
  

[img]http://img810.imageshack.us/img810/8595/13975454.png[/img]
[img]http://img846.imageshack.us/img846/9886/wawa.png[/img]
[img]http://img135.imageshack.us/img135/2345/wwaawa.png[/img]
[img]http://img828.imageshack.us/img828/3739/wwawaawa.png[/img]
[img]http://img195.imageshack.us/img195/9516/wwawawaawa.png[/img]
[img]http://img863.imageshack.us/img863/1111/wwawawawawaawawa.png[/img]
[img]http://img16.imageshack.us/img16/3836/wwawawawawaawa.png[/img]
[img]http://img101.imageshack.us/img101/6323/wwawawawaawa.png[/img]






Greetz

ViSiON,SANTi,MAGNET,THC,T0XiC,iNK,LKRG,IMAGiNE,WBZ,FLAWL3SS,NOVA
Vik,OneTwo,Rapeseed,D2U,SAFC,goldadvance,MEMORY100,KaN1vE,Unevano,Pinnz,Wayne,Mr Hive
and all P2P groups 
Great Work Guys :D

FYS

CM8@hushmail.com